<svg xmlns="http://www.w3.org/2000/svg" viewBox="0 0 22.64 30.85">
  <defs>
    <style>.cls-2{fill:#fff;}</style>
  </defs>
  <g id="Layer_2" data-name="Layer 2">
    <g id="Layer_1-2" data-name="Layer 1">
      <path fill="currentColor" d="M20.64,20.7A8.16,8.16,0,0,1,5,23.92l-.13-.3H0v-16H4.73l.13-.33A8.13,8.13,0,0,1,14.29,2.2a8,8,0,0,1,6.09,5.91,8.62,8.62,0,0,1,.25,2.07,8,8,0,0,1-1.23,4.3,1.78,1.78,0,0,0,0,1.91A8,8,0,0,1,20.64,20.7Z" />
      <path fill="currentColor" d="M21.16,15.43a10,10,0,0,0,1.47-5.25,10.76,10.76,0,0,0-.3-2.54A10,10,0,0,0,14.71.24,10.12,10.12,0,0,0,3.4,5.62H0v20H3.6A10.15,10.15,0,1,0,21.16,15.43ZM6.09,9.62,6.74,8a6.14,6.14,0,0,1,7.13-3.83,6,6,0,0,1,4.57,4.44,6.47,6.47,0,0,1,.19,1.59,6.09,6.09,0,0,1-.91,3.22,3.79,3.79,0,0,0,0,4.06,6,6,0,0,1,.93,3.24A6.15,6.15,0,0,1,6.83,23.12l-.65-1.5H.58v-12Z" />
      <path class="cls-2" d="M20.24,15.85a.79.79,0,0,1,0-.84,9.22,9.22,0,0,0,1.12-7.14A9.15,9.15,0,0,0,4.05,6.62H0v1H4.73l.13-.33A8.13,8.13,0,0,1,14.29,2.2a8,8,0,0,1,6.09,5.91,8.62,8.62,0,0,1,.25,2.07,8,8,0,0,1-1.23,4.3,1.78,1.78,0,0,0,0,1.91,8,8,0,0,1,1.24,4.31A8.16,8.16,0,0,1,5,23.92l-.13-.3H0v1H4.21a9.15,9.15,0,1,0,16-8.77Z" />
    </g>
  </g>
</svg>