<svg xmlns="http://www.w3.org/2000/svg" viewBox="0 0 1000 100" preserveAspectRatio="none">
  <path d="M34.1 31.4c-.8 0-1.4-.5-1.6-1.3-.2-.9.4-1.7 1.3-1.9l10.9-2.1c.9-.2 1.7.4 1.9 1.3s-.4 1.7-1.3 1.9l-10.9 2.1h-.3zM45 39h-.3l-10.9-2.2c-.9-.2-1.4-1-1.3-1.9.2-.9 1-1.4 1.9-1.3l10.9 2.1c.9.2 1.4 1 1.3 1.9-.2.9-.8 1.4-1.6 1.4z"></path>
  <circle cx="26.6" cy="25.8" r="2.2"></circle>
  <path d="M87 58.2c-.8-.5-1.8-.3-2.2.5-.5.8-.3 1.8.5 2.2 3.5 2.3 5.6 6.1 5.6 10.2 0 6.7-5.5 12.2-12.2 12.2H22.9v-2.6c0-.7.6-1.3 1.3-1.3h.9c3.6-.1 4-3.2 4-4.5v-29c.6.1 1.1.1 1.6.1h.5c.9 0 1.6-.8 1.5-1.7 0-.9-.8-1.6-1.7-1.6-.4 0-9.7.3-12.8-8.2-.1-.3-.4-1.4 0-2.2.1-.3.3-.6 1.1-.9.6-.2 1.1-.9 1.1-1.5 0-.1-.1-7.7 4.8-12.3l.1-.1s2.3-2.5 6.9-4h.1s.1 0 .2-.1c0 0 .1 0 .1-.1.1 0 .1-.1.1-.1l.1-.1.1-.1.1-.1.1-.1s0-.1.1-.1c0-.1 0-.1.1-.2V11.6l-1.2-5.4c1.3.3 3 1 4.6 2.2.1.1.1.1.2.1.1.5.3.6.5.6.9.2 1.7-.3 2-1.2l.7-3c1.9 1.2 5.5 4.3 8.4 12.2v.1s.1.2.2.3l.1.1s0 .1.1.1c3.2 3.2 5 7.5 5 12 0 4.4-1.7 8.6-4.8 11.8v.1c-.4.3-.6.8-.6 1.3 0 4.9 4 8.9 8.9 8.9h.6c7.9 0 14.3 6.4 14.3 14.3v9.4c0 .9.7 1.6 1.6 1.6.9 0 1.6-.7 1.6-1.6v-9.4c0-9.7-7.9-17.6-17.6-17.6h-.6c-2.9 0-5.3-2.2-5.6-5 3.5-3.7 5.5-8.6 5.5-13.8 0-5.3-2-10.2-5.7-14-4.9-13-11.9-14.5-12.2-14.6-.8-.2-1.7.4-1.9 1.2l-.6 2.6c-3.3-1.9-6.6-2-6.8-2-.5 0-1 .2-1.3.6-.3.4-.4.9-.3 1.4l1.4 6.3c-4.2 1.7-6.4 3.9-6.8 4.3-4.9 4.5-5.7 11.1-5.9 13.6-.8.5-1.5 1.2-1.9 2.1-1 2.1-.1 4.4 0 4.6 2.1 5.7 6.6 8.4 10.6 9.6V75c0 1.3-.3 1.3-.9 1.3h-.7c-2.5 0-4.5 2-4.5 4.5V85c0 .9.7 1.6 1.6 1.6h57.3c8.5 0 15.4-6.9 15.4-15.4 0-5.3-2.6-10.1-7-13z"></path>
</svg>