<svg xmlns="http://www.w3.org/2000/svg" xmlns:xlink="http://www.w3.org/1999/xlink" width="47.25" height="39.001" viewBox="0 0 47.25 39.001">
  <defs>
    <filter id="Path_1" x="0" y="0.751" width="47.25" height="38.25" filterUnits="userSpaceOnUse">
      <feOffset dy="3" input="SourceAlpha"/>
      <feGaussianBlur stdDeviation="3" result="blur"/>
      <feFlood flood-opacity="0.161"/>
      <feComposite operator="in" in2="blur"/>
      <feComposite in="SourceGraphic"/>
    </filter>
  </defs>
  <g id="Icon_ionic-ios-wallet" data-name="Icon ionic-ios-wallet" transform="translate(9)">
    <g transform="matrix(1, 0, 0, 1, -9, 0)" filter="url(#Path_1)">
      <path id="Path_1-2" data-name="Path 1" d="M28.406,11.25H7.594a4.222,4.222,0,0,0-4.219,4.219V27.281A4.222,4.222,0,0,0,7.594,31.5H28.406a4.222,4.222,0,0,0,4.219-4.219V15.469A4.222,4.222,0,0,0,28.406,11.25Z" transform="translate(5.63 -4.5)" fill="#fff"/>
    </g>
    <path id="Path_2" data-name="Path 2" d="M24.11,4.57,7.594,7.8C6.328,8.079,4.5,9.352,4.5,10.9A4.43,4.43,0,0,1,7.945,9.563h20.18V8.121a4.037,4.037,0,0,0-.977-2.644h0A3.325,3.325,0,0,0,24.11,4.57Z" transform="translate(-3.375 -4.499)" fill="#e8213a"/>
  </g>
</svg>
